<svg xmlns="http://www.w3.org/2000/svg" viewBox="0 0 1600 360" preserveAspectRatio="xMidYMid slice"><defs><linearGradient id="g" x1="0" x2="1"><stop stop-color="#21d7ff"/><stop offset=".55" stop-color="#5e6cff"/><stop offset="1" stop-color="#d65cff"/></linearGradient><filter id="glow"><feGaussianBlur stdDeviation="5" result="b"/><feMerge><feMergeNode in="b"/><feMergeNode in="SourceGraphic"/></feMerge></filter></defs><g opacity=".18" stroke="#3ea9ff"><path d="M0 306L300 160 560 300 840 122 1130 270 1600 82" fill="none"/><path d="M0 226L250 92 520 210 760 60 1090 182 1600 132" fill="none"/><path d="M50 340L430 120 720 330 1040 90 1420 278" fill="none"/></g><g stroke="url(#g)" fill="none" opacity=".65" filter="url(#glow)"><rect x="1050" y="60" width="150" height="95" transform="skewY(-8)"/><rect x="1135" y="102" width="150" height="95" transform="skewY(-8)"/><path d="M1120 130l90 45 95-60 105 50 85-72"/><circle cx="1120" cy="130" r="5"/><circle cx="1210" cy="175" r="5"/><circle cx="1305" cy="115" r="5"/><circle cx="1410" cy="165" r="5"/><circle cx="1495" cy="93" r="5"/></g><g fill="#3ecaff" filter="url(#glow)"><circle cx="160" cy="112" r="4"/><circle cx="280" cy="177" r="3"/><circle cx="415" cy="100" r="4"/><circle cx="560" cy="206" r="3"/><circle cx="705" cy="120" r="4"/><circle cx="860" cy="230" r="3"/></g><g stroke="#31cfff" opacity=".35"><path d="M160 112L280 177 415 100 560 206 705 120 860 230" fill="none"/><circle cx="160" cy="112" r="28" fill="none"/><circle cx="415" cy="100" r="34" fill="none"/><circle cx="705" cy="120" r="25" fill="none"/></g><g fill="#8b63ff" opacity=".5"><circle cx="940" cy="75" r="2"/><circle cx="1000" cy="200" r="2"/><circle cx="1320" cy="52" r="2"/><circle cx="1510" cy="210" r="2"/></g></svg>