<svg xmlns="http://www.w3.org/2000/svg" viewBox="0 0 256 256" role="img" aria-label="Quantic Identity Vault">
<defs>
  <linearGradient id="g" x1="24" y1="18" x2="232" y2="238" gradientUnits="userSpaceOnUse">
    <stop offset="0" stop-color="#071B3D"/>
    <stop offset=".48" stop-color="#0E477F"/>
    <stop offset="1" stop-color="#16C6D8"/>
  </linearGradient>
  <linearGradient id="k" x1="92" y1="88" x2="164" y2="170" gradientUnits="userSpaceOnUse">
    <stop stop-color="#DDFBFF"/>
    <stop offset="1" stop-color="#FFFFFF"/>
  </linearGradient>
</defs>
<rect x="10" y="10" width="236" height="236" rx="56" fill="url(#g)"/>
<path d="M128 49 188 71v43c0 44-23 78-60 98-37-20-60-54-60-98V71l60-22Z" fill="none" stroke="url(#k)" stroke-width="14" stroke-linejoin="round"/>
<path d="M103 119v-13c0-16 11-29 25-29s25 13 25 29v13" fill="none" stroke="url(#k)" stroke-width="13" stroke-linecap="round"/>
<rect x="91" y="112" width="74" height="58" rx="18" fill="url(#k)"/>
<circle cx="128" cy="139" r="8.5" fill="#0E477F"/>
<rect x="124" y="145" width="8" height="13" rx="4" fill="#0E477F"/>
</svg>
